<?xml version="1.0" encoding="utf-8"?>
<!-- Generator: Adobe Illustrator 16.0.0, SVG Export Plug-In . SVG Version: 6.00 Build 0)  -->
<!DOCTYPE svg PUBLIC "-//W3C//DTD SVG 1.1//EN" "http://www.w3.org/Graphics/SVG/1.1/DTD/svg11.dtd">
<svg version="1.1" id="Layer_1" xmlns="http://www.w3.org/2000/svg" xmlns:xlink="http://www.w3.org/1999/xlink" x="0px" y="0px"
	 width="24px" height="24px" viewBox="0 0 24 24" enable-background="new 0 0 24 24" xml:space="preserve">
<g>
	<path d="M15.315,3.726c-0.794-0.873-1.93-1.424-3.2-1.424c-1.268,0-2.406,0.551-3.198,1.424C8.212,4.501,7.778,5.531,7.778,6.665
		c0.001,2.07,0.44,3.156,1.16,3.728c0.131,0.104,0.27,0.191,0.418,0.264C9.299,10.61,9.243,10.56,9.19,10.509
		c-0.435-0.428-0.707-1.016-0.712-1.665c-0.027-0.669-0.04-1.119-0.055-1.639C8.417,6.93,8.408,6.637,8.397,6.279
		c0-1.354,1.409-2.367,2.67-2.367h2.097c1.529,0,2.67,1.25,2.67,2.374c-0.01,0.351-0.018,0.644-0.027,0.918
		c-0.015,0.52-0.027,0.97-0.054,1.634c-0.005,0.652-0.278,1.243-0.714,1.671c-0.057,0.057-0.118,0.109-0.18,0.16
		c0.164-0.078,0.318-0.174,0.459-0.289c0.705-0.576,1.135-1.663,1.135-3.715C16.453,5.531,16.02,4.501,15.315,3.726L15.315,3.726z"
		/>
	<path d="M13.111,4.289H11.12c-1.134,0-2.342,0.92-2.342,2.054c0.03,0.965,0.038,1.456,0.078,2.428
		c0.005,0.737,0.401,1.379,0.988,1.739c0.315,0.194,0.687,0.307,1.084,0.307h2.377c0.398,0,0.769-0.113,1.085-0.307
		c0.585-0.36,0.981-1,0.987-1.739c0.04-0.973,0.047-1.463,0.078-2.428C15.455,5.209,14.246,4.289,13.111,4.289z M10.927,7.896
		c-0.129,0.1-0.289,0.159-0.464,0.159c-0.427,0-0.773-0.347-0.773-0.773c0-0.428,0.347-0.773,0.773-0.773
		c0.149,0,0.288,0.044,0.406,0.117c0.219,0.137,0.367,0.378,0.367,0.656C11.236,7.533,11.115,7.755,10.927,7.896z M13.769,8.055
		c-0.176,0-0.335-0.06-0.465-0.159c-0.187-0.141-0.309-0.363-0.309-0.614c0-0.278,0.147-0.52,0.367-0.656
		c0.119-0.073,0.258-0.117,0.407-0.117c0.428,0,0.773,0.345,0.773,0.773C14.542,7.708,14.197,8.055,13.769,8.055z"/>
	<path d="M14.671,7.267"/>
	<path d="M16.049,20.597c0,0.606-0.504,1.102-1.12,1.102H9.303c-0.617,0-1.121-0.496-1.121-1.102v-7.851
		c0-0.605,0.504-1.102,1.121-1.102h5.626c0.616,0,1.12,0.496,1.12,1.102V20.597z"/>
	<g>
		<path d="M2.085,9.637l3.543,3.543c0.276,0.275,0.784,0.213,1.136-0.138c0.353-0.353,0.414-0.86,0.139-1.136L3.359,8.363
			L2.085,9.637z"/>
		<path d="M1.627,9.327C1.32,9.639,0.889,9.709,0.672,9.492C0.658,9.478,0.647,9.461,0.633,9.448C0.62,9.435,0.6,9.427,0.589,9.41
			L0.1,8.928c-0.175-0.175-0.115-0.521,0.136-0.772C0.484,7.908,0.83,7.848,1.005,8.023l0.17,0.17l0.735-0.74L1.742,7.286
			C1.564,7.108,1.627,6.76,1.875,6.512c0.251-0.251,0.596-0.312,0.774-0.134l0.484,0.484C3.158,6.887,3.177,6.918,3.195,6.95
			C3.197,6.952,3.2,6.955,3.202,6.957c0.221,0.22,0.147,0.649-0.166,0.961L1.627,9.327z"/>
	</g>
	<g>
		<path d="M20.639,8.57l-3.543,3.544c-0.275,0.275-0.213,0.784,0.139,1.136c0.352,0.352,0.859,0.413,1.135,0.138l3.544-3.544
			L20.639,8.57z"/>
		<path d="M20.949,8.112c-0.312-0.307-0.383-0.738-0.165-0.956c0.014-0.014,0.031-0.025,0.044-0.039
			c0.013-0.013,0.021-0.034,0.038-0.043l0.483-0.49c0.175-0.175,0.521-0.115,0.772,0.136c0.247,0.248,0.307,0.594,0.132,0.769
			l-0.17,0.17l0.74,0.735l0.168-0.168c0.177-0.178,0.525-0.115,0.773,0.133c0.251,0.251,0.311,0.597,0.134,0.774l-0.484,0.484
			c-0.024,0.024-0.056,0.042-0.088,0.062c-0.002,0.002-0.004,0.004-0.006,0.007c-0.221,0.22-0.649,0.146-0.961-0.166L20.949,8.112z"
			/>
	</g>
</g>
</svg>
